<mxfile host="Electron" modified="2024-07-04T14:46:21.890Z" agent="Mozilla/5.0 (Macintosh; Intel Mac OS X 10_15_7) AppleWebKit/537.36 (KHTML, like Gecko) draw.io/24.6.4 Chrome/124.0.6367.207 Electron/30.0.6 Safari/537.36" etag="WKgp2lcN7eI7ed1apihw" version="24.6.4" type="device">
  <diagram name="Page-1" id="4JioQfJBW9zsR1fEerRV">
    <mxGraphModel dx="635" dy="1110" grid="1" gridSize="10" guides="1" tooltips="1" connect="1" arrows="1" fold="1" page="0" pageScale="1" pageWidth="827" pageHeight="1169" math="0" shadow="0">
      <root>
        <mxCell id="0" />
        <mxCell id="1" parent="0" />
        <mxCell id="ZSQOpfQuD5Nt9lUuP228-23" value="&lt;font style=&quot;font-size: 14px;&quot;&gt;phone1&lt;br&gt;(8.15.140.10)&lt;/font&gt;" style="rounded=1;whiteSpace=wrap;html=1;" vertex="1" parent="1">
          <mxGeometry width="160" height="280" as="geometry" />
        </mxCell>
        <mxCell id="ZSQOpfQuD5Nt9lUuP228-26" value="&lt;font style=&quot;font-size: 14px;&quot;&gt;phone2&lt;br&gt;(9.16.10.120)&lt;/font&gt;" style="rounded=1;whiteSpace=wrap;html=1;" vertex="1" parent="1">
          <mxGeometry x="640" width="160" height="280" as="geometry" />
        </mxCell>
        <mxCell id="ZSQOpfQuD5Nt9lUuP228-28" value="" style="endArrow=classic;html=1;rounded=0;fontSize=12;startSize=8;endSize=8;edgeStyle=orthogonalEdgeStyle;exitX=0;exitY=0.25;exitDx=0;exitDy=0;entryX=1;entryY=0.25;entryDx=0;entryDy=0;" edge="1" parent="1" source="ZSQOpfQuD5Nt9lUuP228-26" target="ZSQOpfQuD5Nt9lUuP228-24">
          <mxGeometry width="50" height="50" relative="1" as="geometry">
            <mxPoint x="270" y="310" as="sourcePoint" />
            <mxPoint x="320" y="260" as="targetPoint" />
          </mxGeometry>
        </mxCell>
        <mxCell id="ZSQOpfQuD5Nt9lUuP228-32" value="" style="group" vertex="1" connectable="0" parent="1">
          <mxGeometry x="280" y="-280" width="280" height="160" as="geometry" />
        </mxCell>
        <mxCell id="ZSQOpfQuD5Nt9lUuP228-29" value="&lt;div&gt;&lt;br&gt;&lt;/div&gt;DNS provider&lt;br&gt;&lt;div style=&quot;&quot;&gt;alterworld.pp.ua&lt;br&gt;&lt;/div&gt;" style="rounded=0;whiteSpace=wrap;html=1;verticalAlign=top;" vertex="1" parent="ZSQOpfQuD5Nt9lUuP228-32">
          <mxGeometry width="280" height="160" as="geometry" />
        </mxCell>
        <mxCell id="ZSQOpfQuD5Nt9lUuP228-30" value="&lt;div&gt;&lt;span style=&quot;white-space: pre;&quot;&gt;&#x9;&lt;/span&gt;ngcgate - A - 95.179.158.148&lt;/div&gt;" style="rounded=0;whiteSpace=wrap;html=1;align=left;" vertex="1" parent="ZSQOpfQuD5Nt9lUuP228-32">
          <mxGeometry y="80" width="280" height="40" as="geometry" />
        </mxCell>
        <mxCell id="ZSQOpfQuD5Nt9lUuP228-31" value="&lt;div style=&quot;&quot;&gt;&lt;span style=&quot;white-space: pre;&quot;&gt;&#x9;&lt;/span&gt;client - multicast&lt;span style=&quot;white-space: pre;&quot;&gt;&#x9;&lt;/span&gt;[phone1, phone2]&lt;br&gt;&lt;/div&gt;" style="rounded=0;whiteSpace=wrap;html=1;align=left;" vertex="1" parent="ZSQOpfQuD5Nt9lUuP228-32">
          <mxGeometry y="120" width="280" height="40" as="geometry" />
        </mxCell>
        <mxCell id="ZSQOpfQuD5Nt9lUuP228-39" value="" style="endArrow=classic;html=1;rounded=0;fontSize=12;startSize=8;endSize=8;curved=1;entryX=1.002;entryY=0.43;entryDx=0;entryDy=0;entryPerimeter=0;exitX=0.004;exitY=0.426;exitDx=0;exitDy=0;exitPerimeter=0;" edge="1" parent="1">
          <mxGeometry relative="1" as="geometry">
            <mxPoint x="320.64" y="97.27999999999997" as="sourcePoint" />
            <mxPoint x="160.32000000000005" y="98.39999999999986" as="targetPoint" />
          </mxGeometry>
        </mxCell>
        <mxCell id="ZSQOpfQuD5Nt9lUuP228-40" value="[tls trust] ask" style="edgeLabel;resizable=0;html=1;;align=center;verticalAlign=middle;" connectable="0" vertex="1" parent="ZSQOpfQuD5Nt9lUuP228-39">
          <mxGeometry relative="1" as="geometry" />
        </mxCell>
        <mxCell id="ZSQOpfQuD5Nt9lUuP228-43" value="" style="endArrow=classic;html=1;rounded=0;fontSize=12;startSize=8;endSize=8;curved=1;entryX=0;entryY=0.464;entryDx=0;entryDy=0;entryPerimeter=0;" edge="1" parent="1">
          <mxGeometry relative="1" as="geometry">
            <mxPoint x="160" y="117" as="sourcePoint" />
            <mxPoint x="320" y="116.91999999999996" as="targetPoint" />
          </mxGeometry>
        </mxCell>
        <mxCell id="ZSQOpfQuD5Nt9lUuP228-44" value="[tls trust] OK" style="edgeLabel;resizable=0;html=1;;align=center;verticalAlign=middle;" connectable="0" vertex="1" parent="ZSQOpfQuD5Nt9lUuP228-43">
          <mxGeometry relative="1" as="geometry" />
        </mxCell>
        <mxCell id="ZSQOpfQuD5Nt9lUuP228-46" value="" style="endArrow=classic;html=1;rounded=0;fontSize=12;startSize=8;endSize=8;entryX=0;entryY=0.25;entryDx=0;entryDy=0;exitX=0.997;exitY=0.142;exitDx=0;exitDy=0;exitPerimeter=0;edgeStyle=orthogonalEdgeStyle;" edge="1" parent="1" source="ZSQOpfQuD5Nt9lUuP228-23" target="ZSQOpfQuD5Nt9lUuP228-30">
          <mxGeometry relative="1" as="geometry">
            <mxPoint x="200" y="30" as="sourcePoint" />
            <mxPoint x="300" y="30" as="targetPoint" />
            <Array as="points">
              <mxPoint x="190" y="40" />
              <mxPoint x="190" y="-190" />
            </Array>
          </mxGeometry>
        </mxCell>
        <mxCell id="ZSQOpfQuD5Nt9lUuP228-47" value="ask ip&lt;br&gt;of server&#39;s&lt;div&gt;dns name&lt;/div&gt;" style="edgeLabel;resizable=0;html=1;;align=center;verticalAlign=middle;" connectable="0" vertex="1" parent="ZSQOpfQuD5Nt9lUuP228-46">
          <mxGeometry relative="1" as="geometry" />
        </mxCell>
        <mxCell id="ZSQOpfQuD5Nt9lUuP228-48" value="" style="endArrow=classic;html=1;rounded=0;fontSize=12;startSize=8;endSize=8;exitX=0;exitY=0.5;exitDx=0;exitDy=0;edgeStyle=orthogonalEdgeStyle;" edge="1" parent="1" source="ZSQOpfQuD5Nt9lUuP228-30">
          <mxGeometry relative="1" as="geometry">
            <mxPoint x="140" y="-30" as="sourcePoint" />
            <mxPoint x="160" y="60" as="targetPoint" />
            <Array as="points">
              <mxPoint x="230" y="-180" />
              <mxPoint x="230" y="60" />
            </Array>
          </mxGeometry>
        </mxCell>
        <mxCell id="ZSQOpfQuD5Nt9lUuP228-49" value="return ip&lt;div&gt;of server&lt;/div&gt;" style="edgeLabel;resizable=0;html=1;;align=center;verticalAlign=middle;" connectable="0" vertex="1" parent="ZSQOpfQuD5Nt9lUuP228-48">
          <mxGeometry relative="1" as="geometry" />
        </mxCell>
        <mxCell id="ZSQOpfQuD5Nt9lUuP228-50" value="" style="endArrow=classic;html=1;rounded=0;fontSize=12;startSize=8;endSize=8;curved=1;entryX=0;entryY=0.464;entryDx=0;entryDy=0;entryPerimeter=0;" edge="1" parent="1">
          <mxGeometry relative="1" as="geometry">
            <mxPoint x="160" y="80.08" as="sourcePoint" />
            <mxPoint x="320" y="79.99999999999996" as="targetPoint" />
          </mxGeometry>
        </mxCell>
        <mxCell id="ZSQOpfQuD5Nt9lUuP228-51" value="try connect by ip" style="edgeLabel;resizable=0;html=1;;align=center;verticalAlign=middle;" connectable="0" vertex="1" parent="ZSQOpfQuD5Nt9lUuP228-50">
          <mxGeometry relative="1" as="geometry" />
        </mxCell>
        <mxCell id="ZSQOpfQuD5Nt9lUuP228-56" value="" style="group" vertex="1" connectable="0" parent="1">
          <mxGeometry x="320" width="160" height="280" as="geometry" />
        </mxCell>
        <mxCell id="ZSQOpfQuD5Nt9lUuP228-24" value="&lt;font style=&quot;font-size: 14px;&quot;&gt;ngcgate.local&lt;br&gt;(&lt;span style=&quot;color: rgb(40, 146, 255); font-family: &amp;quot;Helvetica Neue&amp;quot;; text-align: start; background-color: initial;&quot;&gt;95.179.158.148&lt;/span&gt;&lt;span style=&quot;background-color: initial;&quot;&gt;)&lt;/span&gt;&lt;/font&gt;&lt;div&gt;&lt;font style=&quot;font-size: 14px;&quot;&gt;&lt;span style=&quot;background-color: initial;&quot;&gt;&lt;br&gt;&lt;/span&gt;&lt;/font&gt;&lt;/div&gt;" style="rounded=1;whiteSpace=wrap;html=1;verticalAlign=bottom;" vertex="1" parent="ZSQOpfQuD5Nt9lUuP228-56">
          <mxGeometry width="160" height="280" as="geometry" />
        </mxCell>
        <mxCell id="ZSQOpfQuD5Nt9lUuP228-53" value="check dns name of ip&lt;div&gt;from request&lt;/div&gt;" style="rounded=0;whiteSpace=wrap;html=1;" vertex="1" parent="ZSQOpfQuD5Nt9lUuP228-56">
          <mxGeometry y="102" width="160" height="38" as="geometry" />
        </mxCell>
        <mxCell id="ZSQOpfQuD5Nt9lUuP228-54" value="" style="endArrow=classic;html=1;rounded=0;fontSize=12;startSize=8;endSize=8;curved=1;entryX=0.283;entryY=0.998;entryDx=0;entryDy=0;exitX=0.25;exitY=0;exitDx=0;exitDy=0;entryPerimeter=0;" edge="1" parent="1" source="ZSQOpfQuD5Nt9lUuP228-53" target="ZSQOpfQuD5Nt9lUuP228-31">
          <mxGeometry width="50" height="50" relative="1" as="geometry">
            <mxPoint x="320" y="80" as="sourcePoint" />
            <mxPoint x="370" y="30" as="targetPoint" />
          </mxGeometry>
        </mxCell>
        <mxCell id="ZSQOpfQuD5Nt9lUuP228-55" value="" style="endArrow=classic;html=1;rounded=0;fontSize=12;startSize=8;endSize=8;curved=1;entryX=0.326;entryY=0.006;entryDx=0;entryDy=0;entryPerimeter=0;exitX=0.319;exitY=1;exitDx=0;exitDy=0;exitPerimeter=0;" edge="1" parent="1" source="ZSQOpfQuD5Nt9lUuP228-31" target="ZSQOpfQuD5Nt9lUuP228-53">
          <mxGeometry width="50" height="50" relative="1" as="geometry">
            <mxPoint x="320" y="60" as="sourcePoint" />
            <mxPoint x="370" y="10" as="targetPoint" />
          </mxGeometry>
        </mxCell>
      </root>
    </mxGraphModel>
  </diagram>
</mxfile>
